<svg xmlns="http://www.w3.org/2000/svg" width="40" height="40" viewBox="0 0 40 40" fill="none">
  <defs>
    <linearGradient id="g" x1="0" y1="0" x2="40" y2="40" gradientUnits="userSpaceOnUse">
      <stop stop-color="#ff7043"/>
      <stop offset="1" stop-color="#ff4081"/>
    </linearGradient>
  </defs>
  <rect width="40" height="40" rx="8" fill="url(#g)"/>
  <path fill="white" d="M8 14h24v14a2 2 0 0 1-2 2H10a2 2 0 0 1-2-2V14Z"/>
  <path fill="white" d="M8 14 20 22l12-8v-2L20 18 8 10v4Z"/>
  <path fill="#d32f2f" d="M22 16.5c0-1.5 1.2-2.7 2.7-2.7.9 0 1.7.4 2.2 1.1.5-.7 1.3-1.1 2.2-1.1 1.5 0 2.7 1.2 2.7 2.7 0 2.5-3.2 4.5-4.9 6.2-1.7-1.7-4.9-3.7-4.9-6.2Z"/>
</svg>
